/* XPM */
static char * first_xpm[] = {
"18 17 7 1",
" 	c None",
".	c #0000FF",
"+	c #808080",
"@	c #C1C1C1",
"#	c #818181",
"$	c #C2C2C2",
"%	c #C0C0C0",
"                  ",
"                  ",
"                  ",
"                  ",
"                  ",
"       .     .    ",
"      ..    ..    ",
"     ...   ...    ",
"   +.... +....    ",
"   @#... $+...    ",
"    @+..  %+..    ",
"     %+.   %+.    ",
"      %+    %+    ",
"       %     %    ",
"                  ",
"                  ",
"                  "};
