/* XPM */
static char * hprev_xpm[] = {
"18 17 5 1",
" 	c None",
".	c #000000",
"+	c #808080",
"@	c #FFFFFF",
"#	c #C0C0C0",
"                  ",
"                  ",
"       .          ",
"      +.          ",
"     +@.          ",
"    +@#.          ",
"   +@##.+++++++.  ",
"  +@##########+.  ",
" +@###########+.  ",
"  .+##+++++++++.  ",
"   .+#+.........  ",
"    .++.          ",
"     .+.          ",
"      ..          ",
"       .          ",
"                  ",
"                  "};
