/* XPM */
static char * prev_xpm[] = {
"18 17 5 1",
" 	c None",
".	c #0000FF",
"+	c #808080",
"@	c #C0C0C0",
"#	c #C1C1C1",
"                  ",
"                  ",
"                  ",
"                  ",
"                  ",
"         .        ",
"        ..        ",
"       ...        ",
"     +....        ",
"     @+...        ",
"      #+..        ",
"       #+.        ",
"        #+        ",
"         @        ",
"                  ",
"                  ",
"                  "};
